<?xml version="1.0" encoding="us-ascii" standalone="no"?><svg xmlns="http://www.w3.org/2000/svg" xmlns:xlink="http://www.w3.org/1999/xlink" contentStyleType="text/css" height="2071px" preserveAspectRatio="none" style="width:945px;height:2071px;background:#FFFFFF;" version="1.1" viewBox="0 0 945 2071" width="945px" zoomAndPan="magnify"><defs/><g><text fill="#000000" font-family="sans-serif" font-size="14" font-weight="bold" lengthAdjust="spacing" textLength="379" x="281.5" y="34.5332">Process de publication de l'IG Terminologies de Sant&#233;</text><ellipse cx="272" cy="58.6094" fill="#222222" rx="10" ry="10" style="stroke:#222222;stroke-width:1.0;"/><path d="M366.5,92.9805 L366.5,102.1563 L346.5,106.1563 L366.5,110.1563 L366.5,119.332 A0,0 0 0 0 366.5,119.332 L450.5,119.332 A0,0 0 0 0 450.5,119.332 L450.5,102.9805 L440.5,92.9805 L366.5,92.9805 A0,0 0 0 0 366.5,92.9805 " fill="#FEFFDD" style="stroke:#181818;stroke-width:0.5;"/><path d="M440.5,92.9805 L440.5,102.9805 L450.5,102.9805 L440.5,92.9805 " fill="#FEFFDD" style="stroke:#181818;stroke-width:0.5;"/><a href="https://github.com/ansforge/IG-terminologie-de-sante/issues/503" target="_top" title="https://github.com/ansforge/IG-terminologie-de-sante/issues/503" xlink:actuate="onRequest" xlink:href="https://github.com/ansforge/IG-terminologie-de-sante/issues/503" xlink:show="new" xlink:title="https://github.com/ansforge/IG-terminologie-de-sante/issues/503" xlink:type="simple"><text fill="#0000FF" font-family="sans-serif" font-size="13" lengthAdjust="spacing" text-decoration="underline" textLength="63" x="372.5" y="111.4756">Issue #503</text></a><rect fill="#F1F1F1" height="35.0938" rx="12.5" ry="12.5" style="stroke:#181818;stroke-width:0.5;" width="149" x="197.5" y="88.6094"/><text fill="#000000" font-family="sans-serif" font-size="12" lengthAdjust="spacing" textLength="129" x="207.5" y="111.0664">V&#233;rifications pr&#233;alables</text><rect fill="none" height="592.332" style="stroke:#000000;stroke-width:1.5;" width="575" x="58" y="133.7031"/><path d="M285,133.7031 L285,144.3125 L275,154.3125 L58,154.3125 " fill="none" style="stroke:#000000;stroke-width:1.5;"/><text fill="#000000" font-family="sans-serif" font-size="14" lengthAdjust="spacing" textLength="217" x="61" y="149.2363">G&#233;n&#233;ration JSON &#224; partir des FSH</text><rect fill="#F1F1F1" height="35.0938" rx="12.5" ry="12.5" style="stroke:#181818;stroke-width:0.5;" width="355" x="94.5" y="171.3125"/><text fill="#000000" font-family="sans-serif" font-size="12" lengthAdjust="spacing" textLength="335" x="104.5" y="193.7695">R&#233;cup&#233;rer le dossier GENERATION_NOS_PUBLICATION_IG</text><rect fill="#F1F1F1" height="35.0938" rx="12.5" ry="12.5" style="stroke:#181818;stroke-width:0.5;" width="207" x="168.5" y="226.4063"/><text fill="#000000" font-family="sans-serif" font-size="12" lengthAdjust="spacing" textLength="187" x="178.5" y="248.8633">Nettoyer les anciens FSH et JSON</text><rect fill="#F1F1F1" height="35.0938" rx="12.5" ry="12.5" style="stroke:#181818;stroke-width:0.5;" width="365" x="89.5" y="281.5"/><text fill="#000000" font-family="sans-serif" font-size="12" lengthAdjust="spacing" textLength="345" x="99.5" y="303.957">D&#233;poser les nouveaux FSH (valid&#233;s et &#224; publier) dans input/fsh</text><rect fill="#F1F1F1" height="35.0938" rx="12.5" ry="12.5" style="stroke:#181818;stroke-width:0.5;" width="243" x="150.5" y="336.5938"/><text fill="#000000" font-family="sans-serif" font-size="12" lengthAdjust="spacing" textLength="223" x="160.5" y="359.0508">V&#233;rifier si sushi-config.yaml bien pr&#233;sent</text><rect fill="#F1F1F1" height="35.0938" rx="12.5" ry="12.5" style="stroke:#181818;stroke-width:0.5;" width="408" x="68" y="391.6875"/><text fill="#000000" font-family="sans-serif" font-size="12" lengthAdjust="spacing" textLength="388" x="78" y="414.1445">Ouvrir le dossier GENERATION_NOS_PUBLICATION_IG dans VSCode</text><rect fill="#F1F1F1" height="50.1875" rx="12.5" ry="12.5" style="stroke:#181818;stroke-width:0.5;" width="67" x="238.5" y="446.7813"/><text fill="#000000" font-family="sans-serif" font-size="12" lengthAdjust="spacing" textLength="47" x="248.5" y="469.2383">Ex&#233;cuter</text><text fill="#000000" font-family="sans-serif" font-size="12" lengthAdjust="spacing" textLength="37" x="248.5" y="484.332">sushi .</text><rect fill="#F1F1F1" height="35.0938" rx="12.5" ry="12.5" style="stroke:#181818;stroke-width:0.5;" width="128" x="208" y="565.8867"/><text fill="#000000" font-family="sans-serif" font-size="12" lengthAdjust="spacing" textLength="108" x="218" y="588.3438">Corriger les erreurs</text><polygon fill="#F1F1F1" points="237.5,516.9688,306.5,516.9688,318.5,528.9688,306.5,540.9688,237.5,540.9688,225.5,528.9688,237.5,516.9688" style="stroke:#181818;stroke-width:0.5;"/><text fill="#000000" font-family="sans-serif" font-size="11" lengthAdjust="spacing" textLength="16" x="276" y="552.3877">Oui</text><text fill="#000000" font-family="sans-serif" font-size="11" lengthAdjust="spacing" textLength="69" x="237.5" y="533.4697">Erreurs SUSHI</text><text fill="#000000" font-family="sans-serif" font-size="11" lengthAdjust="spacing" textLength="19" x="318.5" y="526.5518">Non</text><polygon fill="#F1F1F1" points="272,620.9805,284,632.9805,272,644.9805,260,632.9805,272,620.9805" style="stroke:#181818;stroke-width:0.5;"/><path d="M450,654.9805 L450,680.5078 L430,684.5078 L450,688.5078 L450,714.0352 A0,0 0 0 0 450,714.0352 L623,714.0352 A0,0 0 0 0 623,714.0352 L623,664.9805 L613,654.9805 L450,654.9805 A0,0 0 0 0 450,654.9805 " fill="#FEFFDD" style="stroke:#181818;stroke-width:0.5;"/><path d="M613,654.9805 L613,664.9805 L623,664.9805 L613,654.9805 " fill="#FEFFDD" style="stroke:#181818;stroke-width:0.5;"/><text fill="#000000" font-family="sans-serif" font-size="13" lengthAdjust="spacing" textLength="152" x="456" y="673.4756">Conserver l'arborescence :</text><text fill="#000000" font-family="sans-serif" font-size="13" lengthAdjust="spacing" textLength="61" x="456" y="689.8271">resources/</text><text fill="#000000" font-family="sans-serif" font-size="13" lengthAdjust="spacing" textLength="53" x="464" y="706.1787">fichiers...</text><rect fill="#F1F1F1" height="35.0938" rx="12.5" ry="12.5" style="stroke:#181818;stroke-width:0.5;" width="316" x="114" y="666.9609"/><text fill="#000000" font-family="sans-serif" font-size="12" lengthAdjust="spacing" textLength="296" x="124" y="689.418">Cr&#233;er resources.zip (depuis fsh-generated/resources)</text><rect fill="none" height="342.9023" style="stroke:#000000;stroke-width:1.5;" width="798" x="11" y="736.0352"/><path d="M241,736.0352 L241,746.6445 L231,756.6445 L11,756.6445 " fill="none" style="stroke:#000000;stroke-width:1.5;"/><text fill="#000000" font-family="sans-serif" font-size="14" lengthAdjust="spacing" textLength="220" x="14" y="751.5684">Pousser les ressources sur le SMT</text><path d="M543,778.0156 L543,787.1914 L523,791.1914 L543,795.1914 L543,804.3672 A0,0 0 0 0 543,804.3672 L615,804.3672 A0,0 0 0 0 615,804.3672 L615,788.0156 L605,778.0156 L543,778.0156 A0,0 0 0 0 543,778.0156 " fill="#FEFFDD" style="stroke:#181818;stroke-width:0.5;"/><path d="M605,778.0156 L605,788.0156 L615,788.0156 L605,778.0156 " fill="#FEFFDD" style="stroke:#181818;stroke-width:0.5;"/><a href="https://github.com/ansforge/SMT-TerminoStream/tree/main/NOS_nouveau_format" target="_top" title="https://github.com/ansforge/SMT-TerminoStream/tree/main/NOS_nouveau_format" xlink:actuate="onRequest" xlink:href="https://github.com/ansforge/SMT-TerminoStream/tree/main/NOS_nouveau_format" xlink:show="new" xlink:title="https://github.com/ansforge/SMT-TerminoStream/tree/main/NOS_nouveau_format" xlink:type="simple"><text fill="#0000FF" font-family="sans-serif" font-size="13" lengthAdjust="spacing" text-decoration="underline" textLength="51" x="549" y="796.5107">GIT SMT</text></a><rect fill="#F1F1F1" height="35.0938" rx="12.5" ry="12.5" style="stroke:#181818;stroke-width:0.5;" width="502" x="21" y="773.6445"/><text fill="#000000" font-family="sans-serif" font-size="12" lengthAdjust="spacing" textLength="482" x="31" y="796.1016">D&#233;poser resources.zip sur le GIT SMT-TerminoStream/NOS_nouveau_format via upload</text><path d="M417,833.1094 L417,842.2852 L397,846.2852 L417,850.2852 L417,859.4609 A0,0 0 0 0 417,859.4609 L799,859.4609 A0,0 0 0 0 799,859.4609 L799,843.1094 L789,833.1094 L417,833.1094 A0,0 0 0 0 417,833.1094 " fill="#FEFFDD" style="stroke:#181818;stroke-width:0.5;"/><path d="M789,833.1094 L789,843.1094 L799,843.1094 L789,833.1094 " fill="#FEFFDD" style="stroke:#181818;stroke-width:0.5;"/><text fill="#000000" font-family="sans-serif" font-size="13" lengthAdjust="spacing" textLength="361" x="423" y="851.6045">Mail est envoy&#233; automatiquement pour confirmer que c'est bon</text><rect fill="#F1F1F1" height="35.0938" rx="12.5" ry="12.5" style="stroke:#181818;stroke-width:0.5;" width="250" x="147" y="828.7383"/><text fill="#000000" font-family="sans-serif" font-size="12" lengthAdjust="spacing" textLength="230" x="157" y="851.1953">Attendre le traitement du Talend (~15 min)</text><path d="M371.5,888.2031 L371.5,897.3789 L351.5,901.3789 L371.5,905.3789 L371.5,914.5547 A0,0 0 0 0 371.5,914.5547 L720.5,914.5547 A0,0 0 0 0 720.5,914.5547 L720.5,898.2031 L710.5,888.2031 L371.5,888.2031 A0,0 0 0 0 371.5,888.2031 " fill="#FEFFDD" style="stroke:#181818;stroke-width:0.5;"/><path d="M710.5,888.2031 L710.5,898.2031 L720.5,898.2031 L710.5,888.2031 " fill="#FEFFDD" style="stroke:#181818;stroke-width:0.5;"/><text fill="#000000" font-family="sans-serif" font-size="13" lengthAdjust="spacing" textLength="324" x="377.5" y="906.6982">Commencer par le bas car les logs ne sont pas &#233;cras&#233;s</text><rect fill="#F1F1F1" height="35.0938" rx="12.5" ry="12.5" style="stroke:#181818;stroke-width:0.5;" width="159" x="192.5" y="883.832"/><text fill="#000000" font-family="sans-serif" font-size="12" lengthAdjust="spacing" textLength="139" x="202.5" y="906.2891">Contr&#244;ler les logs Talend</text><rect fill="#F1F1F1" height="35.0938" rx="12.5" ry="12.5" style="stroke:#181818;stroke-width:0.5;" width="65" x="239.5" y="987.8438"/><text fill="#000000" font-family="sans-serif" font-size="12" lengthAdjust="spacing" textLength="45" x="249.5" y="1010.3008">Corriger</text><polygon fill="#F1F1F1" points="220.5,938.9258,323.5,938.9258,335.5,950.9258,323.5,962.9258,220.5,962.9258,208.5,950.9258,220.5,938.9258" style="stroke:#181818;stroke-width:0.5;"/><text fill="#000000" font-family="sans-serif" font-size="11" lengthAdjust="spacing" textLength="16" x="276" y="974.3447">Oui</text><text fill="#000000" font-family="sans-serif" font-size="11" lengthAdjust="spacing" textLength="103" x="220.5" y="955.4268">Erreurs dans les logs</text><text fill="#000000" font-family="sans-serif" font-size="11" lengthAdjust="spacing" textLength="19" x="335.5" y="948.5088">Non</text><polygon fill="#F1F1F1" points="272,1042.9375,284,1054.9375,272,1066.9375,260,1054.9375,272,1042.9375" style="stroke:#181818;stroke-width:0.5;"/><rect fill="none" height="139.7969" style="stroke:#000000;stroke-width:1.5;" width="477.5" x="141" y="1088.9375"/><path d="M315,1088.9375 L315,1099.5469 L305,1109.5469 L141,1109.5469 " fill="none" style="stroke:#000000;stroke-width:1.5;"/><text fill="#000000" font-family="sans-serif" font-size="14" lengthAdjust="spacing" textLength="164" x="144" y="1104.4707">Pr&#233;paration publication IG</text><path d="M413,1130.918 L413,1140.0938 L393,1144.0938 L413,1148.0938 L413,1157.2695 A0,0 0 0 0 413,1157.2695 L474,1157.2695 A0,0 0 0 0 474,1157.2695 L474,1140.918 L464,1130.918 L413,1130.918 A0,0 0 0 0 413,1130.918 " fill="#FEFFDD" style="stroke:#181818;stroke-width:0.5;"/><path d="M464,1130.918 L464,1140.918 L474,1140.918 L464,1130.918 " fill="#FEFFDD" style="stroke:#181818;stroke-width:0.5;"/><text fill="#000000" font-family="sans-serif" font-size="13" lengthAdjust="spacing" textLength="40" x="419" y="1149.4131">version</text><rect fill="#F1F1F1" height="35.0938" rx="12.5" ry="12.5" style="stroke:#181818;stroke-width:0.5;" width="242" x="151" y="1126.5469"/><text fill="#000000" font-family="sans-serif" font-size="12" lengthAdjust="spacing" textLength="222" x="161" y="1149.0039">Incr&#233;menter la version sushi-config.yaml</text><path d="M403.5,1186.0117 L403.5,1195.1875 L383.5,1199.1875 L403.5,1203.1875 L403.5,1212.3633 A0,0 0 0 0 403.5,1212.3633 L608.5,1212.3633 A0,0 0 0 0 608.5,1212.3633 L608.5,1196.0117 L598.5,1186.0117 L403.5,1186.0117 A0,0 0 0 0 403.5,1186.0117 " fill="#FEFFDD" style="stroke:#181818;stroke-width:0.5;"/><path d="M598.5,1186.0117 L598.5,1196.0117 L608.5,1196.0117 L598.5,1186.0117 " fill="#FEFFDD" style="stroke:#181818;stroke-width:0.5;"/><text fill="#000000" font-family="sans-serif" font-size="13" lengthAdjust="spacing" textLength="184" x="409.5" y="1204.5068">version, path, desc, introduction</text><rect fill="#F1F1F1" height="35.0938" rx="12.5" ry="12.5" style="stroke:#181818;stroke-width:0.5;" width="223" x="160.5" y="1181.6406"/><text fill="#000000" font-family="sans-serif" font-size="12" lengthAdjust="spacing" textLength="203" x="170.5" y="1204.0977">Mettre &#224; jour publication-request.json</text><rect fill="none" height="709.1133" style="stroke:#000000;stroke-width:1.5;" width="645.5" x="70" y="1238.7344"/><path d="M176,1238.7344 L176,1249.3438 L166,1259.3438 L70,1259.3438 " fill="none" style="stroke:#000000;stroke-width:1.5;"/><text fill="#000000" font-family="sans-serif" font-size="14" lengthAdjust="spacing" textLength="96" x="73" y="1254.2676">Release de l'IG</text><path d="M414.5,1280.7148 L414.5,1289.8906 L394.5,1293.8906 L414.5,1297.8906 L414.5,1307.0664 A0,0 0 0 0 414.5,1307.0664 L705.5,1307.0664 A0,0 0 0 0 705.5,1307.0664 L705.5,1290.7148 L695.5,1280.7148 L414.5,1280.7148 A0,0 0 0 0 414.5,1280.7148 " fill="#FFA500" style="stroke:#181818;stroke-width:0.5;"/><path d="M695.5,1280.7148 L695.5,1290.7148 L705.5,1290.7148 L695.5,1280.7148 " fill="#FFA500" style="stroke:#181818;stroke-width:0.5;"/><text fill="#000000" font-family="sans-serif" font-size="13" lengthAdjust="spacing" textLength="270" x="420.5" y="1299.21">&#9888; Warning : ne remonte pas toutes les erreurs</text><rect fill="#F1F1F1" height="35.0938" rx="12.5" ry="12.5" style="stroke:#181818;stroke-width:0.5;" width="245" x="149.5" y="1276.3438"/><text fill="#000000" font-family="sans-serif" font-size="12" lengthAdjust="spacing" textLength="225" x="159.5" y="1298.8008">Ex&#233;cuter le workflow validate DM (SUSHI)</text><rect fill="#F1F1F1" height="35.0938" rx="12.5" ry="12.5" style="stroke:#181818;stroke-width:0.5;" width="128" x="208" y="1380.3555"/><text fill="#000000" font-family="sans-serif" font-size="12" lengthAdjust="spacing" textLength="108" x="218" y="1402.8125">Corriger les erreurs</text><polygon fill="#F1F1F1" points="248,1331.4375,296,1331.4375,308,1343.4375,296,1355.4375,248,1355.4375,236,1343.4375,248,1331.4375" style="stroke:#181818;stroke-width:0.5;"/><text fill="#000000" font-family="sans-serif" font-size="11" lengthAdjust="spacing" textLength="19" x="276" y="1366.8564">Non</text><text fill="#000000" font-family="sans-serif" font-size="11" lengthAdjust="spacing" textLength="48" x="248" y="1347.9385">SUSHI OK</text><text fill="#000000" font-family="sans-serif" font-size="11" lengthAdjust="spacing" textLength="16" x="308" y="1341.0205">Oui</text><polygon fill="#F1F1F1" points="272,1435.4492,284,1447.4492,272,1459.4492,260,1447.4492,272,1435.4492" style="stroke:#181818;stroke-width:0.5;"/><path d="M379.5,1483.8203 L379.5,1492.9961 L359.5,1496.9961 L379.5,1500.9961 L379.5,1510.1719 A0,0 0 0 0 379.5,1510.1719 L478.5,1510.1719 A0,0 0 0 0 478.5,1510.1719 L478.5,1493.8203 L468.5,1483.8203 L379.5,1483.8203 A0,0 0 0 0 379.5,1483.8203 " fill="#FEFFDD" style="stroke:#181818;stroke-width:0.5;"/><path d="M468.5,1483.8203 L468.5,1493.8203 L478.5,1493.8203 L468.5,1483.8203 " fill="#FEFFDD" style="stroke:#181818;stroke-width:0.5;"/><text fill="#000000" font-family="sans-serif" font-size="13" lengthAdjust="spacing" textLength="78" x="385.5" y="1502.3154">branche main</text><rect fill="#F1F1F1" height="35.0938" rx="12.5" ry="12.5" style="stroke:#181818;stroke-width:0.5;" width="175" x="184.5" y="1479.4492"/><text fill="#000000" font-family="sans-serif" font-size="12" lengthAdjust="spacing" textLength="155" x="194.5" y="1501.9063">Ex&#233;cuter le workflow build-ig</text><rect fill="#F1F1F1" height="35.0938" rx="12.5" ry="12.5" style="stroke:#181818;stroke-width:0.5;" width="128" x="208" y="1583.4609"/><text fill="#000000" font-family="sans-serif" font-size="12" lengthAdjust="spacing" textLength="108" x="218" y="1605.918">Corriger les erreurs</text><polygon fill="#F1F1F1" points="251.5,1534.543,292.5,1534.543,304.5,1546.543,292.5,1558.543,251.5,1558.543,239.5,1546.543,251.5,1534.543" style="stroke:#181818;stroke-width:0.5;"/><text fill="#000000" font-family="sans-serif" font-size="11" lengthAdjust="spacing" textLength="19" x="276" y="1569.9619">Non</text><text fill="#000000" font-family="sans-serif" font-size="11" lengthAdjust="spacing" textLength="41" x="251.5" y="1551.0439">Build OK</text><text fill="#000000" font-family="sans-serif" font-size="11" lengthAdjust="spacing" textLength="16" x="304.5" y="1544.126">Oui</text><polygon fill="#F1F1F1" points="272,1638.5547,284,1650.5547,272,1662.5547,260,1650.5547,272,1638.5547" style="stroke:#181818;stroke-width:0.5;"/><rect fill="#F1F1F1" height="35.0938" rx="12.5" ry="12.5" style="stroke:#181818;stroke-width:0.5;" width="196" x="174" y="1682.5547"/><text fill="#000000" font-family="sans-serif" font-size="12" lengthAdjust="spacing" textLength="176" x="184" y="1705.0117">Ex&#233;cuter le workflow Release IG</text><rect fill="#FFA500" height="50.1875" rx="12.5" ry="12.5" style="stroke:#181818;stroke-width:0.5;" width="364" x="90" y="1786.5664"/><text fill="#000000" font-family="sans-serif" font-size="12" lengthAdjust="spacing" textLength="344" x="100" y="1809.0234">Cr&#233;er une PR avec les modifications apport&#233;es sur le workflow</text><text fill="#000000" font-family="sans-serif" font-size="12" lengthAdjust="spacing" textLength="117" x="100" y="1824.1172">Mettre Ma&#235;l en review</text><polygon fill="#F1F1F1" points="243.5,1737.6484,300.5,1737.6484,312.5,1749.6484,300.5,1761.6484,243.5,1761.6484,231.5,1749.6484,243.5,1737.6484" style="stroke:#181818;stroke-width:0.5;"/><text fill="#000000" font-family="sans-serif" font-size="11" lengthAdjust="spacing" textLength="19" x="276" y="1773.0674">Non</text><text fill="#000000" font-family="sans-serif" font-size="11" lengthAdjust="spacing" textLength="57" x="243.5" y="1754.1494">Release OK</text><text fill="#000000" font-family="sans-serif" font-size="11" lengthAdjust="spacing" textLength="16" x="312.5" y="1747.2314">Oui</text><polygon fill="#F1F1F1" points="272,1856.7539,284,1868.7539,272,1880.7539,260,1868.7539,272,1856.7539" style="stroke:#181818;stroke-width:0.5;"/><path d="M424.5,1905.125 L424.5,1914.3008 L404.5,1918.3008 L424.5,1922.3008 L424.5,1931.4766 A0,0 0 0 0 424.5,1931.4766 L604.5,1931.4766 A0,0 0 0 0 604.5,1931.4766 L604.5,1915.125 L594.5,1905.125 L424.5,1905.125 A0,0 0 0 0 424.5,1905.125 " fill="#FEFFDD" style="stroke:#181818;stroke-width:0.5;"/><path d="M594.5,1905.125 L594.5,1915.125 L604.5,1915.125 L594.5,1905.125 " fill="#FEFFDD" style="stroke:#181818;stroke-width:0.5;"/><text fill="#000000" font-family="sans-serif" font-size="13" lengthAdjust="spacing" textLength="159" x="430.5" y="1923.6201">ZIP est attach&#233; &#224; la release</text><rect fill="#F1F1F1" height="35.0938" rx="12.5" ry="12.5" style="stroke:#181818;stroke-width:0.5;" width="265" x="139.5" y="1900.7539"/><text fill="#000000" font-family="sans-serif" font-size="12" lengthAdjust="spacing" textLength="245" x="149.5" y="1923.2109">Ex&#233;cuter le workflow Create ZIP NOS Expand</text><path d="M420,1979.7656 L420,1988.9414 L400,1992.9414 L420,1996.9414 L420,2006.1172 A0,0 0 0 0 420,2006.1172 L933,2006.1172 A0,0 0 0 0 933,2006.1172 L933,1989.7656 L923,1979.7656 L420,1979.7656 A0,0 0 0 0 420,1979.7656 " fill="#FEFFDD" style="stroke:#181818;stroke-width:0.5;"/><path d="M923,1979.7656 L923,1989.7656 L933,1989.7656 L923,1979.7656 " fill="#FEFFDD" style="stroke:#181818;stroke-width:0.5;"/><text fill="#000000" font-family="sans-serif" font-size="13" lengthAdjust="spacing" textLength="492" x="426" y="1998.2607">Script update_IG, serveur g&#233;r&#233; par Kereval accessible avec VPN FortiClient puis SSH</text><rect fill="#F1F1F1" height="50.1875" rx="12.5" ry="12.5" style="stroke:#181818;stroke-width:0.5;" width="256" x="144" y="1967.8477"/><text fill="#000000" font-family="sans-serif" font-size="12" lengthAdjust="spacing" textLength="136" x="154" y="1990.3047">Int&#233;gration sur le serveur</text><text fill="#000000" font-family="sans-serif" font-size="12" lengthAdjust="spacing" textLength="236" x="154" y="2005.3984">https://interop.esante.gouv.fr/terminologies/</text><ellipse cx="272" cy="2049.0352" fill="none" rx="11" ry="11" style="stroke:#222222;stroke-width:1.0;"/><ellipse cx="272" cy="2049.0352" fill="#222222" rx="6" ry="6" style="stroke:#222222;stroke-width:1.0;"/><line style="stroke:#181818;stroke-width:1.0;" x1="272" x2="272" y1="68.6094" y2="88.6094"/><polygon fill="#181818" points="268,78.6094,272,88.6094,276,78.6094,272,82.6094" style="stroke:#181818;stroke-width:1.0;"/><line style="stroke:#181818;stroke-width:1.0;" x1="272" x2="272" y1="206.4063" y2="226.4063"/><polygon fill="#181818" points="268,216.4063,272,226.4063,276,216.4063,272,220.4063" style="stroke:#181818;stroke-width:1.0;"/><line style="stroke:#181818;stroke-width:1.0;" x1="272" x2="272" y1="261.5" y2="281.5"/><polygon fill="#181818" points="268,271.5,272,281.5,276,271.5,272,275.5" style="stroke:#181818;stroke-width:1.0;"/><line style="stroke:#181818;stroke-width:1.0;" x1="272" x2="272" y1="316.5938" y2="336.5938"/><polygon fill="#181818" points="268,326.5938,272,336.5938,276,326.5938,272,330.5938" style="stroke:#181818;stroke-width:1.0;"/><line style="stroke:#181818;stroke-width:1.0;" x1="272" x2="272" y1="371.6875" y2="391.6875"/><polygon fill="#181818" points="268,381.6875,272,391.6875,276,381.6875,272,385.6875" style="stroke:#181818;stroke-width:1.0;"/><line style="stroke:#181818;stroke-width:1.0;" x1="272" x2="272" y1="426.7813" y2="446.7813"/><polygon fill="#181818" points="268,436.7813,272,446.7813,276,436.7813,272,440.7813" style="stroke:#181818;stroke-width:1.0;"/><line style="stroke:#181818;stroke-width:1.0;" x1="272" x2="272" y1="540.9688" y2="565.8867"/><polygon fill="#181818" points="268,555.8867,272,565.8867,276,555.8867,272,559.8867" style="stroke:#181818;stroke-width:1.0;"/><line style="stroke:#181818;stroke-width:1.0;" x1="318.5" x2="346" y1="528.9688" y2="528.9688"/><polygon fill="#181818" points="342,573.4336,346,583.4336,350,573.4336,346,577.4336" style="stroke:#181818;stroke-width:1.0;"/><line style="stroke:#181818;stroke-width:1.0;" x1="346" x2="346" y1="528.9688" y2="632.9805"/><line style="stroke:#181818;stroke-width:1.0;" x1="346" x2="284" y1="632.9805" y2="632.9805"/><polygon fill="#181818" points="294,628.9805,284,632.9805,294,636.9805,290,632.9805" style="stroke:#181818;stroke-width:1.0;"/><line style="stroke:#181818;stroke-width:1.0;" x1="272" x2="272" y1="600.9805" y2="620.9805"/><polygon fill="#181818" points="268,610.9805,272,620.9805,276,610.9805,272,614.9805" style="stroke:#181818;stroke-width:1.0;"/><line style="stroke:#181818;stroke-width:1.0;" x1="272" x2="272" y1="496.9688" y2="516.9688"/><polygon fill="#181818" points="268,506.9688,272,516.9688,276,506.9688,272,510.9688" style="stroke:#181818;stroke-width:1.0;"/><line style="stroke:#181818;stroke-width:1.0;" x1="272" x2="272" y1="644.9805" y2="666.9609"/><polygon fill="#181818" points="268,656.9609,272,666.9609,276,656.9609,272,660.9609" style="stroke:#181818;stroke-width:1.0;"/><line style="stroke:#181818;stroke-width:1.0;" x1="272" x2="272" y1="123.7031" y2="171.3125"/><polygon fill="#181818" points="268,161.3125,272,171.3125,276,161.3125,272,165.3125" style="stroke:#181818;stroke-width:1.0;"/><line style="stroke:#181818;stroke-width:1.0;" x1="272" x2="272" y1="808.7383" y2="828.7383"/><polygon fill="#181818" points="268,818.7383,272,828.7383,276,818.7383,272,822.7383" style="stroke:#181818;stroke-width:1.0;"/><line style="stroke:#181818;stroke-width:1.0;" x1="272" x2="272" y1="863.832" y2="883.832"/><polygon fill="#181818" points="268,873.832,272,883.832,276,873.832,272,877.832" style="stroke:#181818;stroke-width:1.0;"/><line style="stroke:#181818;stroke-width:1.0;" x1="272" x2="272" y1="962.9258" y2="987.8438"/><polygon fill="#181818" points="268,977.8438,272,987.8438,276,977.8438,272,981.8438" style="stroke:#181818;stroke-width:1.0;"/><line style="stroke:#181818;stroke-width:1.0;" x1="335.5" x2="347.5" y1="950.9258" y2="950.9258"/><polygon fill="#181818" points="343.5,995.3906,347.5,1005.3906,351.5,995.3906,347.5,999.3906" style="stroke:#181818;stroke-width:1.0;"/><line style="stroke:#181818;stroke-width:1.0;" x1="347.5" x2="347.5" y1="950.9258" y2="1054.9375"/><line style="stroke:#181818;stroke-width:1.0;" x1="347.5" x2="284" y1="1054.9375" y2="1054.9375"/><polygon fill="#181818" points="294,1050.9375,284,1054.9375,294,1058.9375,290,1054.9375" style="stroke:#181818;stroke-width:1.0;"/><line style="stroke:#181818;stroke-width:1.0;" x1="272" x2="272" y1="1022.9375" y2="1042.9375"/><polygon fill="#181818" points="268,1032.9375,272,1042.9375,276,1032.9375,272,1036.9375" style="stroke:#181818;stroke-width:1.0;"/><line style="stroke:#181818;stroke-width:1.0;" x1="272" x2="272" y1="918.9258" y2="938.9258"/><polygon fill="#181818" points="268,928.9258,272,938.9258,276,928.9258,272,932.9258" style="stroke:#181818;stroke-width:1.0;"/><line style="stroke:#181818;stroke-width:1.0;" x1="272" x2="272" y1="702.0547" y2="773.6445"/><polygon fill="#181818" points="268,763.6445,272,773.6445,276,763.6445,272,767.6445" style="stroke:#181818;stroke-width:1.0;"/><line style="stroke:#181818;stroke-width:1.0;" x1="272" x2="272" y1="1161.6406" y2="1181.6406"/><polygon fill="#181818" points="268,1171.6406,272,1181.6406,276,1171.6406,272,1175.6406" style="stroke:#181818;stroke-width:1.0;"/><line style="stroke:#181818;stroke-width:1.0;" x1="272" x2="272" y1="1066.9375" y2="1126.5469"/><polygon fill="#181818" points="268,1116.5469,272,1126.5469,276,1116.5469,272,1120.5469" style="stroke:#181818;stroke-width:1.0;"/><line style="stroke:#181818;stroke-width:1.0;" x1="272" x2="272" y1="1355.4375" y2="1380.3555"/><polygon fill="#181818" points="268,1370.3555,272,1380.3555,276,1370.3555,272,1374.3555" style="stroke:#181818;stroke-width:1.0;"/><line style="stroke:#181818;stroke-width:1.0;" x1="308" x2="346" y1="1343.4375" y2="1343.4375"/><polygon fill="#181818" points="342,1387.9023,346,1397.9023,350,1387.9023,346,1391.9023" style="stroke:#181818;stroke-width:1.0;"/><line style="stroke:#181818;stroke-width:1.0;" x1="346" x2="346" y1="1343.4375" y2="1447.4492"/><line style="stroke:#181818;stroke-width:1.0;" x1="346" x2="284" y1="1447.4492" y2="1447.4492"/><polygon fill="#181818" points="294,1443.4492,284,1447.4492,294,1451.4492,290,1447.4492" style="stroke:#181818;stroke-width:1.0;"/><line style="stroke:#181818;stroke-width:1.0;" x1="272" x2="272" y1="1415.4492" y2="1435.4492"/><polygon fill="#181818" points="268,1425.4492,272,1435.4492,276,1425.4492,272,1429.4492" style="stroke:#181818;stroke-width:1.0;"/><line style="stroke:#181818;stroke-width:1.0;" x1="272" x2="272" y1="1311.4375" y2="1331.4375"/><polygon fill="#181818" points="268,1321.4375,272,1331.4375,276,1321.4375,272,1325.4375" style="stroke:#181818;stroke-width:1.0;"/><line style="stroke:#181818;stroke-width:1.0;" x1="272" x2="272" y1="1459.4492" y2="1479.4492"/><polygon fill="#181818" points="268,1469.4492,272,1479.4492,276,1469.4492,272,1473.4492" style="stroke:#181818;stroke-width:1.0;"/><line style="stroke:#181818;stroke-width:1.0;" x1="272" x2="272" y1="1558.543" y2="1583.4609"/><polygon fill="#181818" points="268,1573.4609,272,1583.4609,276,1573.4609,272,1577.4609" style="stroke:#181818;stroke-width:1.0;"/><line style="stroke:#181818;stroke-width:1.0;" x1="304.5" x2="346" y1="1546.543" y2="1546.543"/><polygon fill="#181818" points="342,1591.0078,346,1601.0078,350,1591.0078,346,1595.0078" style="stroke:#181818;stroke-width:1.0;"/><line style="stroke:#181818;stroke-width:1.0;" x1="346" x2="346" y1="1546.543" y2="1650.5547"/><line style="stroke:#181818;stroke-width:1.0;" x1="346" x2="284" y1="1650.5547" y2="1650.5547"/><polygon fill="#181818" points="294,1646.5547,284,1650.5547,294,1654.5547,290,1650.5547" style="stroke:#181818;stroke-width:1.0;"/><line style="stroke:#181818;stroke-width:1.0;" x1="272" x2="272" y1="1618.5547" y2="1638.5547"/><polygon fill="#181818" points="268,1628.5547,272,1638.5547,276,1628.5547,272,1632.5547" style="stroke:#181818;stroke-width:1.0;"/><line style="stroke:#181818;stroke-width:1.0;" x1="272" x2="272" y1="1514.543" y2="1534.543"/><polygon fill="#181818" points="268,1524.543,272,1534.543,276,1524.543,272,1528.543" style="stroke:#181818;stroke-width:1.0;"/><line style="stroke:#181818;stroke-width:1.0;" x1="272" x2="272" y1="1662.5547" y2="1682.5547"/><polygon fill="#181818" points="268,1672.5547,272,1682.5547,276,1672.5547,272,1676.5547" style="stroke:#181818;stroke-width:1.0;"/><line style="stroke:#181818;stroke-width:1.0;" x1="272" x2="272" y1="1761.6484" y2="1786.5664"/><polygon fill="#181818" points="268,1776.5664,272,1786.5664,276,1776.5664,272,1780.5664" style="stroke:#181818;stroke-width:1.0;"/><line style="stroke:#181818;stroke-width:1.0;" x1="312.5" x2="464" y1="1749.6484" y2="1749.6484"/><polygon fill="#181818" points="460,1801.6602,464,1811.6602,468,1801.6602,464,1805.6602" style="stroke:#181818;stroke-width:1.0;"/><line style="stroke:#181818;stroke-width:1.0;" x1="464" x2="464" y1="1749.6484" y2="1868.7539"/><line style="stroke:#181818;stroke-width:1.0;" x1="464" x2="284" y1="1868.7539" y2="1868.7539"/><polygon fill="#181818" points="294,1864.7539,284,1868.7539,294,1872.7539,290,1868.7539" style="stroke:#181818;stroke-width:1.0;"/><line style="stroke:#181818;stroke-width:1.0;" x1="272" x2="272" y1="1836.7539" y2="1856.7539"/><polygon fill="#181818" points="268,1846.7539,272,1856.7539,276,1846.7539,272,1850.7539" style="stroke:#181818;stroke-width:1.0;"/><line style="stroke:#181818;stroke-width:1.0;" x1="272" x2="272" y1="1717.6484" y2="1737.6484"/><polygon fill="#181818" points="268,1727.6484,272,1737.6484,276,1727.6484,272,1731.6484" style="stroke:#181818;stroke-width:1.0;"/><line style="stroke:#181818;stroke-width:1.0;" x1="272" x2="272" y1="1880.7539" y2="1900.7539"/><polygon fill="#181818" points="268,1890.7539,272,1900.7539,276,1890.7539,272,1894.7539" style="stroke:#181818;stroke-width:1.0;"/><line style="stroke:#181818;stroke-width:1.0;" x1="272" x2="272" y1="1216.7344" y2="1276.3438"/><polygon fill="#181818" points="268,1266.3438,272,1276.3438,276,1266.3438,272,1270.3438" style="stroke:#181818;stroke-width:1.0;"/><line style="stroke:#181818;stroke-width:1.0;" x1="272" x2="272" y1="1935.8477" y2="1967.8477"/><polygon fill="#181818" points="268,1957.8477,272,1967.8477,276,1957.8477,272,1961.8477" style="stroke:#181818;stroke-width:1.0;"/><line style="stroke:#181818;stroke-width:1.0;" x1="272" x2="272" y1="2018.0352" y2="2038.0352"/><polygon fill="#181818" points="268,2028.0352,272,2038.0352,276,2028.0352,272,2032.0352" style="stroke:#181818;stroke-width:1.0;"/><!--SRC=[jLRDRjj64BxpAGRsmH9WaIuAN-IJezWocreIJCK5cWJ6YXnHcvAxxFx8TeBqGNhALSWrRy0twPDqTadPbEEYpQ4w2FoPsVdscs- -fU6cG9WfcQBMa25KTb7mb1akXRij3k8np56LNCX2vXnzKCA4gJT1e0rJ9WY6r_L6yMMRfg5IzOOLR56WFWc4D0YAvoiJl7cpCgRImoZAkLdPHPZACc92BwNACOh70zCfDCXmeAaEHbnhYpewFleHOdS9-tJvxbs08WEtUb0H2kuHxuthZI0m3VwVaka4wi_Wtoi2hk4ykTY3ZmJvgjwajg9GL40CP59hJfVZiydPrUaydavk9jFaPlRwnS_ngBcFnoUKDq5ZvBrFqi14ob7uLG6Dh-TYNjQRIkesHaYxHcRlV51lpGgUrHljmXqonpQgFcH40t1HMHCjzUhaaLDQHNFGLg_u89LYoVFmdfK5BAYm9rgZC2v-QjUA__UzD1Mlav7CqAMVtJb2g05lXIy68JtbI-YTAOLMQKXU9nTn7yoAwlQcblS3eDzm91KrjzqhDh4d0HOQeJUHek-wn9TKO4HOAKoXbbQHsi8Fl89UXfNb6cZFWnm5KkCmYnvY-eIXevyHYGlLsXKxO6eXAIv5aI8CWuUKY62H4bT4W0x3y54aduAkJcRIwcs7ABTD9fuzWydbVEzZfu-xeDkWSJntWODsEXAZa9MHOxfj-GtfkcG6rfo1hGh9ik-OXczNfd-CIiR5SpLQCDsf8CvFZQ5RXGwkKOmRB4aja5cOiy85zlxuuHYeHdy7sINZ1Q0sW68jx-iDC6iaLU6_ssQ1YjW0hqPL4Ztq6D83bx2GeWE0n26CghyMBT4qrxgjVBBRrx9qVLHkKXtM1TEGiawIGD3I5QONf5F5j9kXJgckKhsojwd_hDZdLFf492HPkctCf6kCyRWnaLYa5E8eSJjaGDBKxlqtuxgptJQgIzGbkGgrYHpXlQEsKskWaEZL9dnF13otp26HObQ7pjtIGx8GesHcKxDJO7TRLrWWevstzkwK_Z3zZlrRgNvR5l8Ml5dHHCBBI-Wryzz50FjJnKIEmLz_VePVc19Sv31qlL9OKhVGjyj8MbTtxU59s_p2C7srxPJlnxzwY-_drbkUXx-mlCW6FDzXRK6GqnM26wGdG5wu-Fy3o9PmVuAuIji7pzJQFpy_FJuwsjgb9JPdLy3McFhYfSmw1oshAgde97vqhctDjwALr2Mhlz0m2-h9ckFjTw0UaUiGRR_6Co33WRExYZsPM_VAJJqpXgKhyWdIBqs1QdRNOVUJdnK2chV3rABrRcxfoDaw8NUJ9AiG_SaVvcHouL95tUy27UrWI5B5AqF-weHAvzhXTb78wG0bJCvINY7jdXN0KlUPm-d3f67qUZQ1SsAGZ-WKTlRYpg8akUX0rqPMmTy0]--></g></svg>